<svg xmlns="http://www.w3.org/2000/svg" viewBox="0 0 48 48" width="256" height="256"><g transform="translate(0 -1004.362)" fill="#000000" class="color000 svgShape"><circle cx="24" cy="1028.362" r="24" fill="#239fdb" fill-rule="evenodd" class="color239fdb svgShape"></circle><path fill="#0b5ecd" style="line-height:normal;text-indent:0;text-align:start;text-decoration-line:none;text-decoration-style:solid;text-decoration-color:#000;text-transform:none;block-progression:tb;isolation:auto;mix-blend-mode:normal" d="M30.73 47.021a24 24 0 0 0 1.967-.652 24 24 0 0 0 2.19-.98 24 24 0 0 0 2.08-1.194 24 24 0 0 0 1.951-1.394 24 24 0 0 0 1.803-1.584 24 24 0 0 0 1.634-1.756 24 24 0 0 0 1.454-1.91 24 24 0 0 0 1.254-2.045 24 24 0 0 0 1.042-2.16 24 24 0 0 0 .823-2.254 24 24 0 0 0 .039-.15l-13.5-13.5A1.496 1.496 0 0 0 32.408 17a1.508 1.508 0 0 0-1.5 1.5v4.996l-4.158-4.158c-.02-.021-.05-.034-.076-.05-.02-.013-.035-.028-.057-.038a.542.542 0 0 0-.213-.049l-12.95-1h-.05V18.2a.525.525 0 0 0-.195.045l-.031.016a.435.435 0 0 0-.092.068.48.48 0 0 0-.137.197c-.003.01-.003.021-.006.032a.537.537 0 0 0-.01.228c.003.013.002.025.005.037.018.081.056.155.113.217.005.006.004.014.01.02l.847.847V23.7c0 .138.056.263.147.354l1.853 1.853V32.2L30.73 47.021z" color="#000" font-family="sans-serif" font-weight="400" transform="translate(0 1004.362)" class="color0b5ecd svgShape"></path><path fill="#ffffff" style="line-height:normal;text-indent:0;text-align:start;text-decoration-line:none;text-decoration-style:solid;text-decoration-color:#000;text-transform:none;block-progression:tb;isolation:auto;mix-blend-mode:normal" d="M24.409 1029.763c-.822 0-1.5.677-1.5 1.5v5c0 .646.42 1.197 1 1.406v.293h-5.492c-.676-.01-.676 1.01 0 1h.492v6h1v-6h4v6h1v-6h.584c.676.01.676-1.01 0-1h-.584v-.293c.579-.209 1-.76 1-1.406v-5c0-.823-.678-1.5-1.5-1.5zm0 1c.286 0 .5.214.5.5v5c0 .285-.214.5-.5.5a.488.488 0 0 1-.5-.5v-5c0-.286.214-.5.5-.5zm-19.004.199c-.629.019-.654.944-.027.998l.53.04v4.462a.5.5 0 0 0 .5.5h1.5v8h1v-8h6v8h1v-8h1.5a.5.5 0 0 0 .5-.5v-3.535l.42.033c.694.085.775-.976.077-.997l-12.951-1h-.049zm1.504 1.117 10 .771v3.112h-10z" color="#000" font-family="sans-serif" font-weight="400" overflow="visible" transform="translate(8 -8.4)" class="colorfff svgShape"></path></g></svg>